<svg width="720" height="520" viewBox="0 0 720 520" fill="none" xmlns="http://www.w3.org/2000/svg">
  <rect width="720" height="520" rx="40" fill="#F8EFE6"/>
  <path d="M360 68c-92 0-166 74-166 166v192h332V234c0-92-74-166-166-166Z" fill="#E8D1B8"/>
  <path d="M360 95c-76 0-138 62-138 138v164h276V233c0-76-62-138-138-138Z" fill="#FBF7F0"/>
  <path d="M359.5 94v305" stroke="#D2B08D" stroke-width="8" stroke-linecap="round"/>
  <path d="M224 238h270" stroke="#D2B08D" stroke-width="8" stroke-linecap="round"/>
  <circle cx="360" cy="236" r="76" fill="#F2C26B"/>
  <path d="M248 360c32-42 73-62 122-60 48 2 86 23 115 62v37H248v-39Z" fill="#85A88C"/>
  <path d="M116 438c47-55 94-82 141-81 43 1 72 29 108 30 42 2 80-33 125-38 44-4 83 16 118 61v61H116v-33Z" fill="#536D62"/>
  <path d="M166 426c-15-58-2-109 40-153" stroke="#7F9B73" stroke-width="10" stroke-linecap="round"/>
  <path d="M169 402c-31-7-52-22-65-47 32 4 56 19 65 47Z" fill="#8FAB77"/>
  <path d="M191 344c-31-5-55-19-70-43 33 2 58 16 70 43Z" fill="#8FAB77"/>
  <path d="M214 291c-28-9-48-27-58-52 31 7 53 25 58 52Z" fill="#8FAB77"/>
  <path d="M553 425c13-60-3-112-48-156" stroke="#7F9B73" stroke-width="10" stroke-linecap="round"/>
  <path d="M550 399c30-9 51-26 61-52-31 6-54 23-61 52Z" fill="#8FAB77"/>
  <path d="M526 339c31-8 53-24 66-49-33 5-56 22-66 49Z" fill="#8FAB77"/>
  <path d="M500 286c27-12 45-31 53-57-30 10-50 29-53 57Z" fill="#8FAB77"/>
  <path d="M111 470h498" stroke="#C49B73" stroke-width="18" stroke-linecap="round"/>
</svg>
